<svg xmlns="http://www.w3.org/2000/svg" width="99.655" height="28.296" viewBox="0 0 99.655 28.296">
  <g id="Group_7318" data-name="Group 7318" transform="translate(-883.952 -518.763)">
    <g id="Group_7297" data-name="Group 7297" transform="translate(884.203 519.013)">
      <g id="wTlZ2a" transform="translate(0 0)">
        <g id="Group_72" data-name="Group 72">
          <path id="Path_181" data-name="Path 181" d="M2490.831,1491.113c-.435.146-.813.272-1.191.4a9.477,9.477,0,0,0-4.1,2.71,10.571,10.571,0,0,0-2.241,4.365,11.623,11.623,0,0,0-.408,3.978,9.01,9.01,0,0,0,2.657,5.994,5.857,5.857,0,0,0,8.173.229,8.345,8.345,0,0,0,2.37-3.58c.109-.307.129-.315.45-.315h7.78c.062,0,.125,0,.186,0,.163-.009.209.06.162.217a14.321,14.321,0,0,1-.9,2.339,10.192,10.192,0,0,1-2.552,3.237,8.182,8.182,0,0,1-3.883,1.873,8.858,8.858,0,0,1-2.437.062.519.519,0,0,1-.1-.036,1.23,1.23,0,0,1,.389-.161,12.172,12.172,0,0,0,3.823-2.1,8.494,8.494,0,0,0,2.452-3.219c.07-.166.048-.223-.137-.223q-1.566,0-3.132,0a.386.386,0,0,0-.375.27,10.705,10.705,0,0,1-1.8,2.7,8.572,8.572,0,0,1-4.736,2.705,7.9,7.9,0,0,1-6.212-1.35,10.423,10.423,0,0,1-4.035-5.79,12.792,12.792,0,0,1-.494-4.261,11.713,11.713,0,0,1,2.274-6.451,8.755,8.755,0,0,1,5.115-3.48,7.243,7.243,0,0,1,2.777-.147A1.211,1.211,0,0,1,2490.831,1491.113Z" transform="translate(-2480.525 -1491.001)" fill="#fff" stroke="#fff" stroke-width="0.5"/>
          <path id="Path_182" data-name="Path 182" d="M2641.461,1499.164h-3.837c-.394,0-.437-.028-.57-.4a8.608,8.608,0,0,0-1.886-3.1c-.124-.13-.263-.247-.393-.372-.034-.032-.081-.067-.062-.122s.081-.043.126-.047a4.126,4.126,0,0,1,2.831.8,4.235,4.235,0,0,1,.959.978.613.613,0,0,0,.547.273c.49,0,.981-.021,1.471-.022.449,0,.9.017,1.347.019.107,0,.255.024.306-.071s-.069-.184-.125-.268a7.267,7.267,0,0,0-2.321-2.288,6.015,6.015,0,0,0-2.585-.828,5.779,5.779,0,0,0-4.548,1.682,8.551,8.551,0,0,0-2.666,5.384,9.594,9.594,0,0,0,.906,5.8,9.3,9.3,0,0,0,1.471,2.118c.052.056.106.11.153.17s.163.125.123.219-.148.048-.228.06a3.162,3.162,0,0,1-2.549-.75,5.543,5.543,0,0,1-1.521-2.009,9.573,9.573,0,0,1-.708-2.954,12.461,12.461,0,0,1-.08-1.838,11.161,11.161,0,0,1,1.153-4.734,11.871,11.871,0,0,1,1.694-2.494,8.607,8.607,0,0,1,3.459-2.52,8.007,8.007,0,0,1,2.531-.5,8.159,8.159,0,0,1,3.79.724,8.618,8.618,0,0,1,2.262,1.533,10.931,10.931,0,0,1,3.1,5.193c.089.319.056.364-.277.364h-3.878Z" transform="translate(-2621.516 -1491.327)" fill="#fecd2f" stroke="#fecd2f" stroke-width="0.5"/>
        </g>
      </g>
      <path id="Path_58203" data-name="Path 58203" d="M19.133-104.848a3,3,0,0,0-1.732-.6,3.075,3.075,0,0,0-2.445,1.3,4.84,4.84,0,0,0-1.046,3.132v8.585H11.279v-14.976h2.632v2.391a4.607,4.607,0,0,1,4.28-2.671,11.863,11.863,0,0,1,2.036.252ZM34.593-99.66H23.9a5.435,5.435,0,0,0,1.427,4.041,4.445,4.445,0,0,0,3.241,1.231,5.5,5.5,0,0,0,3.768-1.328L33.443-93.8a4.945,4.945,0,0,1-1.87,1.063,10.031,10.031,0,0,1-3.519.587A6.532,6.532,0,0,1,23.3-94.067a7.547,7.547,0,0,1-2.175-5.677,8.047,8.047,0,0,1,2.23-5.943,6.449,6.449,0,0,1,4.724-2,6.714,6.714,0,0,1,4.973,1.8,6.2,6.2,0,0,1,1.745,4.6A5.994,5.994,0,0,1,34.593-99.66Zm-6.386-5.789a4.089,4.089,0,0,0-2.951,1.147,4.178,4.178,0,0,0-1.288,2.713h8.214a3.8,3.8,0,0,0-1-2.685A3.872,3.872,0,0,0,28.207-105.449Zm18.77,13v-1.1a5.374,5.374,0,0,1-3.989,1.384,5.673,5.673,0,0,1-4.516-2.014,7.951,7.951,0,0,1-1.732-5.369,8.672,8.672,0,0,1,1.995-5.754,6.017,6.017,0,0,1,4.751-2.384,5,5,0,0,1,3.491,1.091v-6.949h2.632v21.1Zm0-11.494a3.11,3.11,0,0,0-2.729-1.51,4.223,4.223,0,0,0-3.428,1.594A6.179,6.179,0,0,0,39.51-99.8q0,5.411,4.876,5.411a3.73,3.73,0,0,0,1.5-.4,2.18,2.18,0,0,0,1.094-.846Zm6.608,7.271v-16.878h2.632v16.43a2.574,2.574,0,0,0,.686,1.895,2.414,2.414,0,0,0,1.794.692v2.377q-5.111,0-5.111-4.516Zm10.874-16.4a1.568,1.568,0,0,1,1.157.482,1.582,1.582,0,0,1,.478,1.154,1.6,1.6,0,0,1-.478,1.168,1.568,1.568,0,0,1-1.157.482,1.552,1.552,0,0,1-1.143-.482,1.6,1.6,0,0,1-.478-1.168,1.587,1.587,0,0,1,.471-1.161A1.557,1.557,0,0,1,64.458-113.07ZM63.017-92.431v-12.738H60.981v-2.237h4.668v14.975Zm15.847,0L74.82-97.884,71.2-92.431H68.129l5.389-7.662-4.945-7.313h2.964l3.325,5.146,3.726-5.146H81.5l-5.389,7.313,5.9,7.662Z" transform="translate(15.826 113.891)" fill="#fff" stroke="#fff" stroke-width="0.5"/>
    </g>
    <g id="Group_7313" data-name="Group 7313" transform="translate(978.389 541.84)">
      <path id="Path_58210" data-name="Path 58210" d="M480.86,129.531a2.534,2.534,0,0,1,.773,1.85,2.64,2.64,0,0,1-2.609,2.609,2.534,2.534,0,0,1-1.85-.773,2.491,2.491,0,0,1-.759-1.836,2.592,2.592,0,0,1,2.609-2.609A2.491,2.491,0,0,1,480.86,129.531Z" transform="translate(-476.415 -128.771)" fill="#fff"/>
      <path id="Path_58211" data-name="Path 58211" d="M480.86,129.531a2.534,2.534,0,0,1,.773,1.85,2.64,2.64,0,0,1-2.609,2.609,2.534,2.534,0,0,1-1.85-.773,2.491,2.491,0,0,1-.759-1.836,2.592,2.592,0,0,1,2.609-2.609A2.491,2.491,0,0,1,480.86,129.531Z" transform="translate(-476.415 -128.771)" fill="#fff"/>
    </g>
    <g id="Group_7314" data-name="Group 7314" transform="translate(966.649 541.84)">
      <path id="Path_58210-2" data-name="Path 58210" d="M480.86,129.531a2.534,2.534,0,0,1,.773,1.85,2.64,2.64,0,0,1-2.609,2.609,2.534,2.534,0,0,1-1.85-.773,2.491,2.491,0,0,1-.759-1.836,2.592,2.592,0,0,1,2.609-2.609A2.491,2.491,0,0,1,480.86,129.531Z" transform="translate(-476.415 -128.771)" fill="#fff"/>
      <path id="Path_58211-2" data-name="Path 58211" d="M480.86,129.531a2.534,2.534,0,0,1,.773,1.85,2.64,2.64,0,0,1-2.609,2.609,2.534,2.534,0,0,1-1.85-.773,2.491,2.491,0,0,1-.759-1.836,2.592,2.592,0,0,1,2.609-2.609A2.491,2.491,0,0,1,480.86,129.531Z" transform="translate(-476.415 -128.771)" fill="#fff"/>
    </g>
    <g id="Group_7317" data-name="Group 7317" transform="translate(957.385 543.145)">
      <g id="Group_7315" data-name="Group 7315" transform="translate(2.061)">
        <path id="Path_58214" data-name="Path 58214" d="M236.7,154.909c1.924-.345,1.924-.625,0-.855l.164-.033h5.1l.132.016a.943.943,0,0,1,0,.888h-5.229A.271.271,0,0,1,236.7,154.909Z" transform="translate(-236.705 -154.021)" fill="#fff"/>
      </g>
      <g id="Group_7316" data-name="Group 7316" transform="translate(0 2.169)">
        <path id="Path_58215" data-name="Path 58215" d="M226.138,185.316h-.082q2.787-.469,0-.74h7.728a.32.32,0,0,1,.132.016.618.618,0,0,1,0,.707.321.321,0,0,1-.132.016Z" transform="translate(-226.056 -184.575)" fill="#fff"/>
      </g>
    </g>
  </g>
</svg>
