<svg xmlns="http://www.w3.org/2000/svg" xmlns:xlink="http://www.w3.org/1999/xlink" width="68" height="66" viewBox="0 0 68 66">
  <defs>
    <clipPath id="clip-path">
      <rect id="Rectangle_49939" data-name="Rectangle 49939" width="40.542" height="40.714" fill="#022b5c"/>
    </clipPath>
  </defs>
  <g id="Group_92569" data-name="Group 92569" transform="translate(-453 -1093)">
    <rect id="Rectangle_49949" data-name="Rectangle 49949" width="68" height="66" rx="8" transform="translate(453 1093)" fill="#dbfef9"/>
    <g id="Group_92199" data-name="Group 92199">
      <g id="Group_92012" data-name="Group 92012" transform="translate(467 1106)">
        <g id="Group_92011" data-name="Group 92011" clip-path="url(#clip-path)">
          <path id="Path_270335" data-name="Path 270335" d="M117.576,40.713H98.408c.082-.066.162-.136.247-.2a12.962,12.962,0,0,0,4.834-7.039c.208-.746.322-1.518.484-2.3h.463q4.652,0,9.3,0a1.3,1.3,0,0,0,1.043-.388A1.119,1.119,0,0,0,115,29.5a1.193,1.193,0,0,0-1.183-.713q-4.712,0-9.424,0h-.474a13.622,13.622,0,0,0-1.368-4.771h4.994c2.081,0,4.162,0,6.243,0a1.211,1.211,0,0,0,1.218-.723,1.192,1.192,0,0,0-1.2-1.663c-4.109,0-8.218-.008-12.326.009a1.057,1.057,0,0,1-.87-.405,12.768,12.768,0,0,0-8.552-4.3c-.783-.07-1.578-.01-2.4-.01v-.447q0-6.341,0-12.682A3.583,3.583,0,0,1,93.442,0q8.231,0,16.462,0h.434v.5q0,4.214,0,8.428a1.235,1.235,0,0,0,1.408,1.414h8.932V23.406q0,6.818,0,13.636a3.572,3.572,0,0,1-2.381,3.46c-.235.084-.479.141-.719.211M105.165,14.472h-.556q-4.073,0-8.145,0a1.189,1.189,0,0,0-.288,2.352,2.444,2.444,0,0,0,.513.03q7.351,0,14.7,0c.821,0,1.642,0,2.463,0a1.17,1.17,0,0,0,1.161-.743,1.189,1.189,0,0,0-1.188-1.64q-4.331-.007-8.662,0" transform="translate(-80.136 0.001)" fill="#022b5c"/>
          <path id="Path_270336" data-name="Path 270336" d="M9.842,202.514a19.974,19.974,0,0,1-2.729-.649,10.323,10.323,0,0,1-7.043-8.946,10.651,10.651,0,0,1,9.122-11.77,10.738,10.738,0,1,1,3.022,21.263c-.208.032-.415.068-.622.1Zm-.786-8.96c-.562-.574-1.041-1.087-1.546-1.573a1.189,1.189,0,1,0-1.676,1.688q1.164,1.2,2.36,2.359a1.149,1.149,0,0,0,1.678.022q2.812-2.778,5.592-5.588a1.113,1.113,0,0,0,.306-1.1,1.191,1.191,0,0,0-2.061-.512q-1.977,1.955-3.934,3.931c-.232.233-.449.48-.719.77" transform="translate(0 -161.8)" fill="#022b5c"/>
          <path id="Path_270337" data-name="Path 270337" d="M307.077,7.456l7.129,7.127h-7.129Z" transform="translate(-274.461 -6.664)" fill="#022b5c"/>
        </g>
      </g>
    </g>
  </g>
</svg>
