<svg xmlns="http://www.w3.org/2000/svg" xmlns:xlink="http://www.w3.org/1999/xlink" width="68" height="66" viewBox="0 0 68 66">
  <defs>
    <clipPath id="clip-path">
      <rect id="Rectangle_49941" data-name="Rectangle 49941" width="48.08" height="40.714" fill="#022b5c"/>
    </clipPath>
  </defs>
  <g id="Group_92568" data-name="Group 92568" transform="translate(-742 -1093)">
    <rect id="Rectangle_49950" data-name="Rectangle 49950" width="68" height="66" rx="8" transform="translate(742 1093)" fill="#d5e8ff"/>
    <g id="Group_92016" data-name="Group 92016" transform="translate(751.96 1106)">
      <g id="Group_92015" data-name="Group 92015" clip-path="url(#clip-path)">
        <path id="Path_270344" data-name="Path 270344" d="M128.6,5.624a1.874,1.874,0,0,1-1.794-2.172c0-.544-.012-1.089,0-1.632A1.752,1.752,0,0,1,128.684,0q3.775-.007,7.55,0a1.769,1.769,0,0,1,1.876,1.861c.005.544,0,1.088,0,1.632A1.86,1.86,0,0,1,136.3,5.617c0,.718-.017,1.449.018,2.178.005.108.238.257.39.3a16.908,16.908,0,0,1,7.141,3.984A16.62,16.62,0,1,1,128.1,8.155c.406-.108.535-.276.512-.68-.034-.605-.009-1.214-.009-1.851m3.882,3.52a27.587,27.587,0,0,0-3.24.291,15.061,15.061,0,1,0,18.065,11.892c-1.34-7.3-8.261-12.622-14.824-12.183M134.781,5.6h-4.634V7.623h4.634Z" transform="translate(-100.981 0)" fill="#022b5c"/>
        <path id="Path_270345" data-name="Path 270345" d="M33.558,226.164c1.41,0,2.82-.006,4.231,0a.773.773,0,0,1,.848.732c.014.435-.334.752-.857.778-.128.006-.256,0-.385,0H30.328c-.32,0-.641.006-.961,0-.581-.013-.914-.3-.911-.763s.334-.747.92-.749c1.394,0,2.788,0,4.183,0" transform="translate(-24.807 -197.159)" fill="#022b5c"/>
        <path id="Path_270346" data-name="Path 270346" d="M33.562,138.509q2.067,0,4.134,0c.583,0,.929.276.938.732s-.345.761-.915.762q-4.181.009-8.363,0c-.586,0-.912-.293-.9-.763s.336-.73.93-.731q2.091,0,4.182,0" transform="translate(-24.802 -120.746)" fill="#022b5c"/>
        <path id="Path_270347" data-name="Path 270347" d="M62,96.03c-1.41,0-2.82,0-4.23,0-.551,0-.869-.28-.876-.737-.008-.48.311-.762.9-.767,1.057-.008,2.115,0,3.172,0,1.714,0,3.429-.016,5.143.016a1.294,1.294,0,0,1,.819.364.711.711,0,0,1,.033.694,1.084,1.084,0,0,1-.731.417c-1.409.039-2.819.019-4.229.019" transform="translate(-49.595 -82.396)" fill="#022b5c"/>
        <path id="Path_270348" data-name="Path 270348" d="M5.075,183.81q-2.067,0-4.133,0c-.59,0-.928-.266-.941-.724s.34-.762.952-.763c2.772,0,5.543.015,8.315-.012.739-.007,1.149.655.8,1.113a1.108,1.108,0,0,1-.761.369c-1.409.036-2.819.017-4.229.017" transform="translate(0 -158.93)" fill="#022b5c"/>
        <path id="Path_270349" data-name="Path 270349" d="M61.968,271.592c-1.409,0-2.819.005-4.228,0-.585,0-.917-.343-.858-.841.049-.406.348-.64.865-.642,1.538-.006,3.075,0,4.613,0,1.3,0,2.6-.021,3.891.022a1,1,0,0,1,.705.439.783.783,0,0,1-.1.732,1.138,1.138,0,0,1-.76.283c-1.377.027-2.754.012-4.132.012" transform="translate(-49.582 -235.46)" fill="#022b5c"/>
        <path id="Path_270350" data-name="Path 270350" d="M148.73,104.011a12.4,12.4,0,1,1,12.4,12.366,12.442,12.442,0,0,1-12.4-12.366m11.552-2.989c0,1.088.069,2.182-.02,3.263a1.779,1.779,0,0,0,1.173,1.978c1.382.667,2.7,1.468,4.049,2.2a.756.756,0,0,0,1.179-.45.791.791,0,0,0-.5-.885c-1.305-.716-2.6-1.458-3.915-2.149a.769.769,0,0,1-.467-.816c.021-1.92.01-3.841.009-5.761,0-.512.019-1.026-.012-1.536a.68.68,0,0,0-.679-.679.7.7,0,0,0-.786.613,2.643,2.643,0,0,0-.027.478q0,1.872,0,3.745" transform="translate(-129.656 -79.874)" fill="#022b5c"/>
      </g>
    </g>
  </g>
</svg>
