<svg xmlns="http://www.w3.org/2000/svg" xmlns:xlink="http://www.w3.org/1999/xlink" width="68" height="66" viewBox="0 0 68 66">
  <defs>
    <clipPath id="clip-path">
      <rect id="Rectangle_49938" data-name="Rectangle 49938" width="40.385" height="40.459" fill="#022b5c"/>
    </clipPath>
  </defs>
  <g id="Group_92198" data-name="Group 92198" transform="translate(-160 -1093)">
    <rect id="Rectangle_49948" data-name="Rectangle 49948" width="68" height="66" rx="8" transform="translate(160 1093)" fill="#fce2e8"/>
    <g id="Group_92010" data-name="Group 92010" transform="translate(173.808 1107.255)">
      <g id="Group_92009" data-name="Group 92009" clip-path="url(#clip-path)">
        <path id="Path_270332" data-name="Path 270332" d="M3.786,0H36.594a.96.96,0,0,0,.177.07,4.317,4.317,0,0,1,3.6,4.271q.018,12.107-.007,24.214a4.179,4.179,0,0,1-2.382,3.816,2.141,2.141,0,0,1-.3.106c0-1.418.01-2.786,0-4.155a9.952,9.952,0,0,0-.107-1.652,7.331,7.331,0,0,0-14.535.422c-.111,1.744-.05,3.5-.067,5.25,0,.154,0,.307,0,.474-.137.013-.227.029-.316.029-6.071,0-12.143.011-18.214-.005A4.316,4.316,0,0,1,.218,29.825c-.081-.246-.146-.5-.218-.745V3.793a.962.962,0,0,0,.07-.177A4.183,4.183,0,0,1,2.253.56,10.615,10.615,0,0,1,3.786,0M20.23,15.324H7.927c-.565,0-1.131-.009-1.7,0A1.175,1.175,0,0,0,6,17.653a2.659,2.659,0,0,0,.587.04q13.6,0,27.208,0a3.959,3.959,0,0,0,.433-.008,1.212,1.212,0,0,0,1.086-1.122,1.19,1.19,0,0,0-.892-1.2,2.327,2.327,0,0,0-.548-.038q-6.822,0-13.643,0m-.041-5.078H9.543c-1.091,0-2.182-.009-3.272.005a1.177,1.177,0,0,0-1.206,1.157,1.207,1.207,0,0,0,1.13,1.2c.1.01.21.008.315.008q13.682,0,27.364,0a2.349,2.349,0,0,0,.585-.06,1.172,1.172,0,0,0,0-2.258,2.624,2.624,0,0,0-.626-.049q-6.821,0-13.642,0m-.039-2.72c2.956,0,5.912,0,8.868,0a1.159,1.159,0,0,0,1.216-1.136A1.184,1.184,0,0,0,29.06,5.159c-.1-.007-.21,0-.315,0q-8.553,0-17.106,0a2.68,2.68,0,0,0-.586.048,1.153,1.153,0,0,0-.9,1.3,1.175,1.175,0,0,0,1.283,1.022q4.355.005,8.711,0m-7.478,18.96c2.127,0,4.255,0,6.382,0a1.162,1.162,0,0,0,1.216-1.137,1.2,1.2,0,0,0-1.177-1.228c-.118-.007-.236,0-.355,0H8.535c-.735,0-1.471-.006-2.206,0a1.207,1.207,0,0,0-1.191.8,1.175,1.175,0,0,0,1.192,1.563c2.114.007,4.228,0,6.343,0" fill="#022b5c"/>
        <path id="Path_270333" data-name="Path 270333" d="M241.331,323.4a1.4,1.4,0,0,1-.934-1.514c.023-1.737.007-3.475.007-5.213v-.41c3.34,2.537,6.632,2.531,9.981,0v.431c0,1.7-.021,3.4.01,5.094a1.549,1.549,0,0,1-.863,1.608H248.9c-.31-.193-.625-.378-.929-.579-.766-.507-1.535-1.01-2.288-1.537a.434.434,0,0,0-.582,0c-1.066.715-2.145,1.41-3.22,2.113Z" transform="translate(-215.069 -282.94)" fill="#022b5c"/>
        <path id="Path_270334" data-name="Path 270334" d="M245.488,216.849a5,5,0,1,1-5,5,5.025,5.025,0,0,1,5-5" transform="translate(-215.149 -194.001)" fill="#022b5c"/>
      </g>
    </g>
  </g>
</svg>
