<svg xmlns="http://www.w3.org/2000/svg" xmlns:xlink="http://www.w3.org/1999/xlink" width="68" height="66" viewBox="0 0 68 66">
  <defs>
    <clipPath id="clip-path">
      <rect id="Rectangle_49942" data-name="Rectangle 49942" width="40.839" height="37.101" fill="#022b5c"/>
    </clipPath>
  </defs>
  <g id="Group_92193" data-name="Group 92193" transform="translate(-1024 -5787)">
    <rect id="Rectangle_49951" data-name="Rectangle 49951" width="68" height="66" rx="8" transform="translate(1024 5787)" fill="#fff7e3"/>
    <g id="Group_92018" data-name="Group 92018" transform="translate(1037.581 5801.45)">
      <g id="Group_92017" data-name="Group 92017" clip-path="url(#clip-path)">
        <path id="Path_270351" data-name="Path 270351" d="M0,35.061V2.04C.573.558,1.265,0,2.592,0Q20.415,0,38.238,0a2.447,2.447,0,0,1,2.6,2.6q0,15.949,0,31.9a2.449,2.449,0,0,1-2.6,2.6q-17.823.005-35.645,0A2.436,2.436,0,0,1,.068,35.2.94.94,0,0,0,0,35.061m2.961-.925h34.9V8.8H2.961ZM32.336,6.043v0c.186,0,.373.014.557,0a.808.808,0,0,0,.775-.728,7.553,7.553,0,0,0,0-1.35.81.81,0,0,0-.818-.727c-.331-.017-.665-.017-1,0a.835.835,0,0,0-.847.791,7.478,7.478,0,0,0,0,1.233.84.84,0,0,0,.85.788c.159.01.319,0,.478,0M26.787,4.627h-.009c0,.146,0,.292,0,.439a.893.893,0,0,0,1,.981c.266.005.532.008.8,0a.879.879,0,0,0,.912-.864,7.207,7.207,0,0,0,0-1.115.869.869,0,0,0-.894-.838,9.658,9.658,0,0,0-1,.007.846.846,0,0,0-.8.8c-.017.2,0,.4,0,.6m11.12.011h0c0-.146,0-.292,0-.439a.9.9,0,0,0-1-.977c-.266,0-.532-.008-.8,0a.872.872,0,0,0-.9.828,6.975,6.975,0,0,0,0,1.155.869.869,0,0,0,.9.834c.305.012.612.013.917,0a.867.867,0,0,0,.884-.885c.01-.172,0-.345,0-.518" transform="translate(0 0)" fill="#022b5c"/>
        <path id="Path_270352" data-name="Path 270352" d="M66.331,95.377a14.036,14.036,0,0,1,7.19,2.35,23.966,23.966,0,0,1,5.444,4.754c.481.561.491.848.017,1.4a21.262,21.262,0,0,1-8.677,6.364,11.825,11.825,0,0,1-10.064-.917,22.9,22.9,0,0,1-6.685-5.531.768.768,0,0,1-.046-1.145,21.139,21.139,0,0,1,8.85-6.512,13.784,13.784,0,0,1,2.075-.544c.623-.12,1.264-.147,1.9-.216m-.04,3.306a4.114,4.114,0,1,0,4.13,4.089,4.116,4.116,0,0,0-4.13-4.089" transform="translate(-45.883 -82.144)" fill="#022b5c"/>
      </g>
    </g>
  </g>
</svg>
