<svg xmlns="http://www.w3.org/2000/svg" width="132.616" height="25.163" viewBox="0 0 132.616 25.163">
  <g id="Group_141607" data-name="Group 141607" transform="translate(-5628.797 2310.266)">
    <g id="Moglix_Logo" data-name="Moglix Logo" transform="translate(5628.797 -2310.266)">
      <g id="Group_1005" transform="translate(0 0)">
        <g id="Group_1000_00000023991502219841862530000003496402203401265832_" transform="translate(0 5.584)">
          <path id="Path_356" d="M83.487-2.137H80.141c.184-2.127.257-4.2.257-6.2a5.037,5.037,0,0,0-.58-2.951,2.3,2.3,0,0,0-1.857-.7,3.95,3.95,0,0,0-2.16.744c-.033,1.047-.046,1.989-.046,2.826,0,1.4.033,3.5.079,6.284H72.454c.184-2.312.277-4.545.277-6.718a4.552,4.552,0,0,0-.474-2.417,2.2,2.2,0,0,0-1.963-.711,3.029,3.029,0,0,0-2.279.929c.046,3.333.059,6.31.059,8.945H64.7q.227-3.942.231-6.2A25.786,25.786,0,0,0,64.3-14l3.221-.349.211,1.337h.2a5.376,5.376,0,0,1,3.7-1.489,4.117,4.117,0,0,1,3.616,1.489h.2a5.975,5.975,0,0,1,3.7-1.489,4.865,4.865,0,0,1,3.241.929,4.238,4.238,0,0,1,1.093,3.359c0,.165-.013.474-.033.916s-.033.757-.033.916C83.441-7.024,83.461-4.923,83.487-2.137Z" transform="translate(-64.3 14.5)" fill="#d9232d"/>
        </g>
        <g id="Group_1001_00000140001381126951909510000013842426670721049755_" transform="translate(19.931 5.401)">
          <path id="Path_357_00000036964603844288562070000010057911916164704162_" d="M-47.281-7.423A6.4,6.4,0,0,1-49.244-2.45,6.6,6.6,0,0,1-53.855-.658a6.261,6.261,0,0,1-4.334-1.627A5.924,5.924,0,0,1-60-6.889,6.466,6.466,0,0,1-58.037-11.9a6.617,6.617,0,0,1,4.624-1.8,6.133,6.133,0,0,1,4.3,1.64A5.906,5.906,0,0,1-47.281-7.423Zm-3.3.382a5.333,5.333,0,0,0-.85-3.069,2.609,2.609,0,0,0-2.233-1.245A2.564,2.564,0,0,0-55.837-10.2a4.829,4.829,0,0,0-.843,2.9,5.333,5.333,0,0,0,.85,3.069A2.609,2.609,0,0,0-53.6-2.984a2.564,2.564,0,0,0,2.174-1.153A4.842,4.842,0,0,0-50.581-7.041Z" transform="translate(60 13.7)" fill="#d9232d"/>
        </g>
        <g id="Group_1002_00000099658963884864579060000007902305016074397341_" transform="translate(33.202 3.937)">
          <path id="Path_358_00000141436671312824735140000010462222520849010837_" d="M-129.166-4.359l-.277,2.338c-1.311,0-2.127.184-2.463.56V-1.3a3.329,3.329,0,0,1,.744,2.114A4.121,4.121,0,0,1-132.5,3.908a5.525,5.525,0,0,1-3.972,1.278,9,9,0,0,1-2.114-.2c-.441.2-.672.474-.672.79a1.107,1.107,0,0,0,.8,1.08,13.275,13.275,0,0,0,3.728.3q5.068,0,5.065,3.451a4.4,4.4,0,0,1-2.114,3.847,8.884,8.884,0,0,1-5.124,1.429q-5.908,0-5.9-3.708a2.982,2.982,0,0,1,.672-1.95,2.606,2.606,0,0,1,1.535-.975V9.072a2.262,2.262,0,0,1-1.067-2.035,2.733,2.733,0,0,1,1.442-2.325V4.527a3.353,3.353,0,0,1-2.035-3.195,3.988,3.988,0,0,1,1.416-3.1,6.393,6.393,0,0,1,4.347-1.245,6.26,6.26,0,0,1,3.254.757h.184c.25-1.587,1.074-2.378,2.457-2.378A3.257,3.257,0,0,1-129.166-4.359Zm-3.6,15.92a1.446,1.446,0,0,0-.711-1.35,5.22,5.22,0,0,0-2.45-.408c-.942,0-1.9-.046-2.859-.119a2.1,2.1,0,0,0-1.113,1.95c0,1.614,1.08,2.417,3.221,2.417a5.214,5.214,0,0,0,2.859-.685A2.068,2.068,0,0,0-132.769,11.561Zm-1.5-10.387A2.1,2.1,0,0,0-135-.558a2.574,2.574,0,0,0-1.673-.593,2.575,2.575,0,0,0-1.66.58,2,2,0,0,0-.711,1.686,2.049,2.049,0,0,0,.731,1.706,2.714,2.714,0,0,0,1.706.58,2.555,2.555,0,0,0,1.627-.56A1.983,1.983,0,0,0-134.264,1.174Z" transform="translate(142.8 4.638)" fill="#d9232d"/>
        </g>
        <g id="Group_1003_00000036210946623308322780000003847958991827586195_" transform="translate(48.508 0)">
          <path id="Path_359_00000126294500327151761500000003197296961067431868_" d="M-234.338,37.842h-3.451c.119-2.892.184-6.007.184-9.379A76.561,76.561,0,0,0-238,20.1l3.649-.2c-.119,2.384-.184,5.23-.184,8.576C-234.516,31.855-234.456,34.983-234.338,37.842Z" transform="translate(238 -19.9)" fill="#d9232d"/>
        </g>
        <g id="Group_1004_00000023996028156888319230000012781318897756514969_" transform="translate(54.406 0.266)">
          <path id="Path_360_00000026146561242764653160000005976027549961163666_" d="M-271.164,36.079h-3.392c.119-1.752.184-3.741.184-5.994A35.17,35.17,0,0,0-274.8,24.2l3.636-.362c-.105,1.627-.165,3.708-.165,6.251C-271.349,32.245-271.283,34.254-271.164,36.079Zm.58-15.8a2.148,2.148,0,0,1-.593,1.508,2.109,2.109,0,0,1-1.627.639,1.75,1.75,0,0,1-1.383-.56,1.917,1.917,0,0,1-.5-1.337,2.09,2.09,0,0,1,.593-1.489,2.119,2.119,0,0,1,1.64-.639,1.757,1.757,0,0,1,1.383.547,2.011,2.011,0,0,1,.487,1.331Z" transform="translate(274.8 -18.4)" fill="#d9232d"/>
        </g>
      </g>
      <g id="Group_1011" transform="translate(50.954 6.083)">
        <g id="Group_1006_00000021116785182999722420000018283065532730695329_" transform="translate(9.238 0)">
          <path id="Path_361_00000158030071451035331520000002385057681953053826_" d="M-302.065-18h3.379a14.241,14.241,0,0,1-1.686,2.523,25.766,25.766,0,0,1-2.22,2.766v.2a41.36,41.36,0,0,1,2.523,3.418A23.556,23.556,0,0,1-298.2-6.072l-3.926.059a15.419,15.419,0,0,0-1.08-2.279,26.41,26.41,0,0,0-1.508-2.569h-.165a21.1,21.1,0,0,0-1.37,2.523,10.457,10.457,0,0,0-.942,2.312H-310.7a15.242,15.242,0,0,1,1.838-2.951,28.979,28.979,0,0,1,2.542-3.379v-.184a34.854,34.854,0,0,1-2.187-2.845A12.809,12.809,0,0,1-310.193-18h3.926a7.952,7.952,0,0,0,.85,1.95,19.071,19.071,0,0,0,1.265,2.174H-304a13.287,13.287,0,0,0,1.172-2.147A8.255,8.255,0,0,0-302.065-18Z" transform="translate(310.7 18)" fill="#d9232d"/>
        </g>
        <g id="Group_1007_00000130631865664776221910000000571810210352393641_" transform="translate(16.441 13.337)">
          <path id="Path_362_00000146501437126006685590000001260348745435481785_" d="M-350.806-100.263a2.792,2.792,0,0,1,.85,2.035,2.727,2.727,0,0,1-.85,2.022,2.762,2.762,0,0,1-2.022.85,2.791,2.791,0,0,1-2.035-.85,2.75,2.75,0,0,1-.837-2.022,2.779,2.779,0,0,1,.837-2.035,2.779,2.779,0,0,1,2.035-.837A2.75,2.75,0,0,1-350.806-100.263Z" transform="translate(355.7 101.1)" fill="#d9232d"/>
          <path id="Path_363_00000152241933011975932190000014392207305541989252_" d="M-350.806-100.263a2.792,2.792,0,0,1,.85,2.035,2.727,2.727,0,0,1-.85,2.022,2.762,2.762,0,0,1-2.022.85,2.791,2.791,0,0,1-2.035-.85,2.75,2.75,0,0,1-.837-2.022,2.779,2.779,0,0,1,.837-2.035,2.779,2.779,0,0,1,2.035-.837A2.75,2.75,0,0,1-350.806-100.263Z" transform="translate(355.7 101.1)" fill="#d9232d"/>
        </g>
        <g id="Group_1008_00000164480825864297223560000003876683165811486849_" transform="translate(8.609 13.337)">
          <path id="Path_364_00000052812525674123355090000015106999279046568091_" d="M-302.006-100.263a2.792,2.792,0,0,1,.85,2.035,2.727,2.727,0,0,1-.85,2.022,2.762,2.762,0,0,1-2.022.85,2.791,2.791,0,0,1-2.035-.85,2.75,2.75,0,0,1-.837-2.022,2.779,2.779,0,0,1,.837-2.035,2.779,2.779,0,0,1,2.035-.837A2.75,2.75,0,0,1-302.006-100.263Z" transform="translate(306.9 101.1)" fill="#d9232d"/>
          <path id="Path_365_00000163054174756708266090000004613805720619770516_" d="M-302.006-100.263a2.792,2.792,0,0,1,.85,2.035,2.727,2.727,0,0,1-.85,2.022,2.762,2.762,0,0,1-2.022.85,2.791,2.791,0,0,1-2.035-.85,2.75,2.75,0,0,1-.837-2.022,2.779,2.779,0,0,1,.837-2.035,2.779,2.779,0,0,1,2.035-.837A2.75,2.75,0,0,1-302.006-100.263Z" transform="translate(306.9 101.1)" fill="#d9232d"/>
        </g>
        <g id="Group_1009_00000147218726261250059650000003586061024227005332_" transform="translate(0.703 14.989)">
          <path id="Path_366_00000119797161024995931430000001628817916285424032_" d="M-257.6-110.677q2.668-.474,0-.79l.151-.033h4.716l.119.013a.869.869,0,0,1,0,.823h-4.835A.237.237,0,0,1-257.6-110.677Z" transform="translate(257.6 111.5)" fill="#d9232d"/>
        </g>
        <g id="Group_1010_00000053520163097964162250000016531522711414781344_" transform="translate(0 17.001)">
          <path id="Path_367_00000116940119649840992260000001030024974346809772_" d="M-253.221-123.252h-.079c1.719-.29,1.719-.514,0-.685h7.147a.236.236,0,0,1,.119.013.564.564,0,0,1,0,.652.245.245,0,0,1-.119.013Z" transform="translate(253.3 123.939)" fill="#d9232d"/>
        </g>
      </g>
    </g>
    <path id="Path_260443" data-name="Path 260443" d="M9.658-35.671a9.582,9.582,0,0,1-3.736-.659,5.585,5.585,0,0,1-2.368-1.733A4.066,4.066,0,0,1,2.7-40.383a.5.5,0,0,1,.146-.366.5.5,0,0,1,.366-.146H5.386a.788.788,0,0,1,.452.11,1.128,1.128,0,0,1,.305.354A2.49,2.49,0,0,0,7.266-39.04a4.411,4.411,0,0,0,2.393.562,4.821,4.821,0,0,0,2.612-.574,1.809,1.809,0,0,0,.879-1.6,1.5,1.5,0,0,0-.452-1.123,3.689,3.689,0,0,0-1.343-.757q-.891-.317-2.649-.781a10.168,10.168,0,0,1-4.212-1.819,4.019,4.019,0,0,1-1.331-3.235,4.277,4.277,0,0,1,.769-2.515,5.138,5.138,0,0,1,2.222-1.733,8.384,8.384,0,0,1,3.381-.635A7.892,7.892,0,0,1,13-52.542a5.8,5.8,0,0,1,2.234,1.77,3.914,3.914,0,0,1,.818,2.112.5.5,0,0,1-.146.366.5.5,0,0,1-.366.146H13.272a.708.708,0,0,1-.708-.464,1.978,1.978,0,0,0-.977-1.306,3.765,3.765,0,0,0-2.051-.525,3.884,3.884,0,0,0-2.149.513,1.672,1.672,0,0,0-.781,1.489A1.627,1.627,0,0,0,7-47.317a3.285,3.285,0,0,0,1.233.781,20.934,20.934,0,0,0,2.429.757,16.888,16.888,0,0,1,3.43,1.1,4.5,4.5,0,0,1,1.892,1.538,4.229,4.229,0,0,1,.61,2.368,4.421,4.421,0,0,1-.867,2.722,5.384,5.384,0,0,1-2.442,1.77A9.987,9.987,0,0,1,9.658-35.671Zm13.135,0a5.185,5.185,0,0,1-2.283-.5,4.146,4.146,0,0,1-1.636-1.355,3.207,3.207,0,0,1-.6-1.88,3.221,3.221,0,0,1,1.343-2.686,8.062,8.062,0,0,1,3.687-1.392l3.345-.488v-.513a2.189,2.189,0,0,0-.537-1.611,2.378,2.378,0,0,0-1.733-.537,2.483,2.483,0,0,0-1.306.305,4.268,4.268,0,0,0-.793.6q-.293.317-.391.415a.369.369,0,0,1-.366.293h-1.88a.539.539,0,0,1-.378-.146.506.506,0,0,1-.159-.391,2.64,2.64,0,0,1,.6-1.392,4.517,4.517,0,0,1,1.77-1.343,6.866,6.866,0,0,1,2.93-.562,5.818,5.818,0,0,1,4.2,1.294,4.543,4.543,0,0,1,1.318,3.394V-36.5a.588.588,0,0,1-.159.415.555.555,0,0,1-.427.171H27.359a.565.565,0,0,1-.415-.171.565.565,0,0,1-.171-.415v-.952a3.985,3.985,0,0,1-1.526,1.282A5.4,5.4,0,0,1,22.794-35.671Zm.83-2.319a2.931,2.931,0,0,0,2.2-.879,3.533,3.533,0,0,0,.855-2.564v-.513l-2.442.391a5.319,5.319,0,0,0-2.136.708,1.421,1.421,0,0,0-.72,1.2,1.389,1.389,0,0,0,.659,1.221A2.8,2.8,0,0,0,23.624-37.991Zm13.111,2.319a5.185,5.185,0,0,1-2.283-.5,4.146,4.146,0,0,1-1.636-1.355,3.207,3.207,0,0,1-.6-1.88,3.221,3.221,0,0,1,1.343-2.686,8.062,8.062,0,0,1,3.687-1.392l3.345-.488v-.513a2.189,2.189,0,0,0-.537-1.611,2.378,2.378,0,0,0-1.733-.537,2.483,2.483,0,0,0-1.306.305,4.268,4.268,0,0,0-.793.6q-.293.317-.391.415a.369.369,0,0,1-.366.293h-1.88a.539.539,0,0,1-.378-.146.506.506,0,0,1-.159-.391,2.64,2.64,0,0,1,.6-1.392,4.517,4.517,0,0,1,1.77-1.343,6.866,6.866,0,0,1,2.93-.562,5.818,5.818,0,0,1,4.2,1.294,4.543,4.543,0,0,1,1.318,3.394V-36.5a.588.588,0,0,1-.159.415.555.555,0,0,1-.427.171H41.3a.565.565,0,0,1-.415-.171.565.565,0,0,1-.171-.415v-.952a3.985,3.985,0,0,1-1.526,1.282A5.4,5.4,0,0,1,36.735-35.671Zm.83-2.319a2.931,2.931,0,0,0,2.2-.879,3.533,3.533,0,0,0,.855-2.564v-.513l-2.442.391a5.319,5.319,0,0,0-2.136.708,1.421,1.421,0,0,0-.72,1.2,1.389,1.389,0,0,0,.659,1.221A2.8,2.8,0,0,0,37.565-37.991Zm15.65,2.319a9.582,9.582,0,0,1-3.736-.659,5.585,5.585,0,0,1-2.368-1.733,4.066,4.066,0,0,1-.855-2.319.5.5,0,0,1,.146-.366.5.5,0,0,1,.366-.146h2.173a.788.788,0,0,1,.452.11,1.128,1.128,0,0,1,.305.354,2.49,2.49,0,0,0,1.123,1.392,4.411,4.411,0,0,0,2.393.562,4.821,4.821,0,0,0,2.612-.574,1.809,1.809,0,0,0,.879-1.6,1.5,1.5,0,0,0-.452-1.123,3.689,3.689,0,0,0-1.343-.757q-.891-.317-2.649-.781a10.168,10.168,0,0,1-4.212-1.819,4.019,4.019,0,0,1-1.331-3.235,4.277,4.277,0,0,1,.769-2.515,5.138,5.138,0,0,1,2.222-1.733,8.384,8.384,0,0,1,3.381-.635,7.892,7.892,0,0,1,3.467.708,5.8,5.8,0,0,1,2.234,1.77,3.914,3.914,0,0,1,.818,2.112.5.5,0,0,1-.146.366.5.5,0,0,1-.366.146H56.828a.708.708,0,0,1-.708-.464,1.978,1.978,0,0,0-.977-1.306,3.765,3.765,0,0,0-2.051-.525,3.884,3.884,0,0,0-2.149.513,1.672,1.672,0,0,0-.781,1.489,1.627,1.627,0,0,0,.391,1.123,3.285,3.285,0,0,0,1.233.781,20.934,20.934,0,0,0,2.429.757,16.887,16.887,0,0,1,3.43,1.1,4.5,4.5,0,0,1,1.892,1.538,4.229,4.229,0,0,1,.61,2.368,4.421,4.421,0,0,1-.867,2.722,5.384,5.384,0,0,1-2.442,1.77A9.987,9.987,0,0,1,53.215-35.671Z" transform="translate(5701.264 -2256.685)" fill="#3c3c3c"/>
  </g>
</svg>
