<svg xmlns="http://www.w3.org/2000/svg" width="136.124" height="38.868"><g data-name="Group 141763"><path data-name="Union 2" d="M16.235 28.841V7.449H0V0h39.918v11.651H32.47v-4.2h-8.786v21.39Z" fill="#d9232d"/><path data-name="Union 3" d="M33.042 38.868H0V27.026h7.449v4.393H32.47v-8.117h-6.3v-7.449h13.748v23.015Z" fill="#3c3c3c"/><path data-name="Union 4" d="M.573 23.302H0V9.932h7.258v6.112h6.685v7.258Z" fill="#3c3c3c"/><path data-name="Path 260559" d="M54.422 0h-9.907v2.766h3.056v13.991h3.768V2.767h3.083Zm7.72 0v13.332c0 .474-.184.659-.711.659h-1.266c-.5 0-.685-.184-.685-.659V0h-3.767v13.832c0 1.818.922 2.925 3.32 2.925h3.531c2.4 0 3.346-1.107 3.346-2.925V0Zm13.121 0v10.012L71.653 0h-3.4v16.757h3.425V6.719l3.663 10.038h3.372V0Zm15.7 5.428V2.9c0-1.792-.949-2.9-3.32-2.9h-3.4c-2.4 0-3.32 1.107-3.32 2.9v10.96c0 1.792.922 2.9 3.32 2.9h3.4c2.371 0 3.32-1.107 3.32-2.9V7.746H85.88v2.5h1.317v3.267c0 .5-.184.659-.711.659h-1.08c-.527 0-.711-.158-.711-.659V3.241c0-.474.184-.659.711-.659h1.084c.527 0 .711.184.711.659v2.187Zm7.931 7.9c0 .474-.184.659-.711.659h-.9c-.527 0-.711-.184-.711-.659v-1.66H92.81v2.16c0 1.818.949 2.925 3.346 2.925h3.188c2.4 0 3.32-1.107 3.32-2.925V9.88c0-1.792-.817-2.872-3.162-2.872h-2.266c-.527 0-.711-.158-.711-.632V3.425c0-.474.184-.659.711-.659h.9c.527 0 .711.184.711.659v1.66h3.768V2.9c0-1.792-.922-2.9-3.32-2.9h-3.218c-2.4 0-3.32 1.107-3.32 2.9v3.82c0 1.792.79 2.951 3.109 2.951h2.319c.527 0 .711.158.711.632ZM113.571 0h-9.906v2.766h3.056v13.991h3.769V2.767h3.083Zm5.085 13.99V9.617h4.4V6.85h-4.4V2.766h5.164V0h-8.93v16.757h9.143V13.99ZM132.673 0v10.012L129.064 0h-3.4v16.757h3.426V6.719l3.662 10.038h3.372V0Z" fill="#3c3c3c"/><path data-name="Path 260566" d="M51.392 35.442c0 .474-.184.659-.711.659h-.9c-.527 0-.711-.184-.711-.659v-1.66h-3.764v2.16c0 1.818.949 2.925 3.346 2.925h3.188c2.4 0 3.32-1.107 3.32-2.925V31.99c0-1.792-.817-2.872-3.162-2.872h-2.266c-.527 0-.711-.158-.711-.632v-2.951c0-.474.184-.659.711-.659h.9c.527 0 .711.184.711.659v1.66h3.768v-2.187c0-1.792-.922-2.9-3.32-2.9h-3.218c-2.4 0-3.32 1.107-3.32 2.9v3.82c0 1.792.79 2.951 3.109 2.951h2.318c.527 0 .711.158.711.632Zm9.59-2.345 1.37-7.087 1.37 7.087Zm3.873 5.77h3.79l-3.9-16.757h-4.8l-3.794 16.757h3.715l.58-3.03h3.82Zm14.1-13.99v-2.766h-9.01v16.757h3.768v-6.771h4.4v-2.608h-4.4v-4.611Zm5.269 11.224v-4.374h4.4v-2.766h-4.4v-4.084h5.161v-2.766h-8.932v16.757h9.142v-2.766Zm15.861-13.99h-9.91v2.766h3.056v13.99h3.768v-13.99h3.083Zm12.2 0h-3.851l-2.081 7.878-2.24-7.878h-3.847l4.216 11.329v5.428h3.763v-5.4Z" fill="#d9232d"/></g></svg>